<svg width="101" height="46" viewBox="0 0 101 46" fill="none" xmlns="http://www.w3.org/2000/svg">
<g clip-path="url(#clip0_324_56023)">
<path d="M61.1303 17.055C61.1303 14.295 59.5743 13.092 57.0973 13.092H54.8323V21.16H57.2383C59.5743 21.16 61.1303 19.886 61.1303 17.055V17.055ZM56.6723 19.673V14.578H57.0263C58.3703 14.578 59.2903 15.144 59.2903 17.126C59.2903 19.036 58.3703 19.744 57.0263 19.744H56.6723V19.674V19.673ZM66.5803 16.63L65.5182 16.205C64.8102 15.922 64.3153 15.781 64.3153 15.285C64.3153 14.86 64.7403 14.577 65.3763 14.577C66.0133 14.577 66.5092 14.79 67.0752 15.214L67.9953 14.082C67.2873 13.374 66.2963 13.02 65.3763 13.02C63.6783 13.02 62.4753 14.082 62.4753 15.427C62.4753 16.63 63.2532 17.267 64.1032 17.621L65.1643 18.045C65.8723 18.328 66.2962 18.47 66.2962 19.035C66.2962 19.531 65.9433 19.815 65.1643 19.815C64.5273 19.815 63.7493 19.46 63.1833 18.965L62.1213 20.168C62.9713 20.947 64.0313 21.301 65.0933 21.301C67.0043 21.301 68.1363 20.168 68.1363 18.824C68.2073 17.691 67.5703 16.984 66.5803 16.63V16.63ZM73.0902 21.301C74.2232 21.301 75.2143 20.876 75.7803 20.311V16.631H72.8073V18.116H74.1523V19.532C73.9403 19.673 73.5863 19.744 73.3023 19.744C71.8173 19.744 71.0383 18.754 71.0383 17.126C71.0383 15.498 71.8883 14.507 73.1613 14.507C73.8693 14.507 74.2943 14.79 74.6473 15.144L75.5673 14.012C75.0013 13.446 74.2232 12.95 73.0202 12.95C70.8972 12.95 69.0573 14.507 69.0573 17.196C69.1983 19.886 70.8973 21.301 73.0913 21.301H73.0902ZM80.8053 21.16L83.2113 13.092H81.3713L80.4512 16.842C80.2392 17.692 80.0273 18.541 79.8143 19.461H79.7443C79.5313 18.541 79.3193 17.763 79.1073 16.843L78.1162 13.092H76.2063L78.6113 21.16H80.8053V21.16ZM87.2453 12.95C85.0513 12.95 83.5653 14.436 83.5653 17.126C83.5653 19.815 85.0513 21.372 87.2453 21.372C89.4383 21.372 90.9253 19.815 90.9253 17.126C90.9253 14.436 89.4383 12.95 87.2453 12.95V12.95ZM87.2453 19.744C86.1123 19.744 85.4753 18.683 85.4753 17.126C85.4753 15.498 86.1833 14.578 87.2453 14.578C88.3063 14.578 89.0143 15.568 89.0143 17.126C89.0143 18.682 88.3773 19.744 87.2443 19.744H87.2453ZM60.4243 26.964H58.4423L56.4613 29.37V24.416H54.6913V33.121H56.4613V31.564L57.2393 30.714L58.5843 33.121H60.5653L58.2303 29.511L60.4243 26.964V26.964ZM63.7503 26.822C62.1933 26.822 60.7773 28.025 60.7773 30.007C60.7773 32.059 62.1933 33.191 63.7503 33.191C65.3073 33.191 66.7223 31.988 66.7223 30.007C66.7223 27.955 65.3073 26.822 63.7503 26.822V26.822ZM63.7503 31.776C62.9713 31.776 62.6173 31.068 62.6173 30.006C62.6173 28.946 62.9713 28.238 63.7503 28.238C64.4573 28.238 64.8823 28.945 64.8823 30.007C64.8823 31.068 64.4573 31.777 63.7503 31.777V31.776ZM71.6063 26.822C70.7563 26.822 70.1903 27.247 69.6243 27.742H69.5543L69.4123 26.964H67.9263V33.121H69.7663V28.945C70.1903 28.591 70.4733 28.379 70.8983 28.379C71.3943 28.379 71.6773 28.662 71.6773 29.512V33.121H73.5173V29.299C73.5173 27.742 72.9503 26.822 71.6063 26.822V26.822ZM77.9023 25.689C78.1153 25.689 78.3273 25.759 78.5393 25.83L78.8932 24.486C78.6102 24.415 78.1853 24.273 77.6903 24.273C76.0623 24.273 75.4253 25.335 75.4253 26.609V26.963L74.5762 27.033V28.378H75.4263V33.12H77.2663V28.378H78.3983V26.963H77.2653V26.609C77.1953 25.972 77.4073 25.689 77.9023 25.689V25.689ZM81.7962 26.822C80.2402 26.822 78.8242 28.025 78.8242 30.007C78.8242 32.059 80.2402 33.191 81.7962 33.191C83.3532 33.191 84.7692 31.988 84.7692 30.007C84.7692 27.955 83.3532 26.822 81.7962 26.822V26.822ZM81.7962 31.776C81.0182 31.776 80.6643 31.068 80.6643 30.006C80.6643 28.946 81.0182 28.238 81.7962 28.238C82.5042 28.238 82.9293 28.945 82.9293 30.007C82.9293 31.068 82.5042 31.777 81.7962 31.777V31.776ZM87.6693 28.025L87.5273 26.964H86.0413V33.121H87.8812V29.582C88.2352 28.733 88.8012 28.45 89.2262 28.45C89.5092 28.45 89.6503 28.52 89.8633 28.52L90.1463 26.964C90.0043 26.893 89.7923 26.822 89.4383 26.822C88.8013 26.822 88.0933 27.176 87.6683 28.025H87.6693ZM98.0723 26.822C97.2223 26.822 96.6563 27.318 96.1613 27.884C95.8783 27.247 95.3112 26.822 94.4622 26.822C93.6842 26.822 93.1183 27.247 92.6223 27.742H92.5523L92.4103 26.964H90.9243V33.121H92.7643V28.945C93.1183 28.521 93.4722 28.379 93.8252 28.379C94.3212 28.379 94.6042 28.662 94.6042 29.512V33.121H96.4443V28.945C96.8683 28.521 97.1512 28.379 97.5052 28.379C98.0012 28.379 98.2842 28.662 98.2842 29.512V33.121H100.124V29.299C99.9823 27.742 99.4163 26.822 98.0723 26.822V26.822ZM3.80825 24.487L5.64825 25.407L5.29425 23.425L6.70925 22.01L4.72825 21.656L3.80825 19.886L2.88825 21.656L0.90625 22.01L2.39225 23.425L2.03925 25.407L3.80825 24.487ZM7.34725 31.917L6.42725 30.077L5.50725 31.917L3.52525 32.2L4.94125 33.616L4.65825 35.597L6.42725 34.677L8.19725 35.597L7.91325 33.616L9.32825 32.2L7.34725 31.917V31.917ZM14.6362 39.49L13.7162 37.65L12.7962 39.49L10.8152 39.772L12.3012 41.188L11.9472 43.169L13.7162 42.249L15.5562 43.169L15.2022 41.188L16.6173 39.772L14.6362 39.489V39.49ZM24.7552 42.32L23.9053 40.48L22.9853 42.32L21.0042 42.603L22.4193 44.019L22.0653 46L23.9053 45.08L25.6752 46L25.3212 44.018L26.8072 42.602L24.7552 42.32V42.32ZM34.9463 39.631L34.0963 37.791L33.1763 39.631L31.1962 39.914L32.6112 41.33L32.2572 43.311L34.0973 42.391L35.8673 43.311L35.5123 41.33L36.9983 39.914L34.9463 39.631V39.631ZM42.5193 32.27L41.5993 30.43L40.7493 32.27L38.6973 32.554L40.1833 33.969L39.8303 35.951L41.5993 35.031L43.4393 35.951L43.0853 33.969L44.5003 32.554L42.5193 32.271V32.27ZM45.2083 22.08L44.3593 20.24L43.4393 22.08L41.3873 22.363L42.8733 23.779L42.5193 25.76L44.3593 24.84L46.1293 25.76L45.7743 23.779L47.2613 22.363L45.2083 22.08V22.08ZM39.7593 15.64L41.5993 14.648L43.3683 15.639L43.0143 13.587L44.5003 12.172L42.4483 11.888L41.5983 10.119L40.6783 11.889L38.6983 12.172L40.1133 13.587L39.7593 15.639V15.64ZM34.1673 2.617L33.2473 4.387L31.2663 4.67L32.6812 6.085L32.3982 8.137L34.1683 7.147L35.9363 8.137L35.6533 6.085L37.0703 4.67L35.0883 4.386L34.1683 2.617H34.1673ZM22.1362 5.52L23.9762 4.6L25.7463 5.52L25.3923 3.538L26.8783 2.123L24.8253 1.84L23.9762 0L23.0562 1.84L21.0042 2.123L22.4902 3.538L22.1362 5.52V5.52ZM12.0173 8.351L13.7872 7.361L15.6272 8.351L15.2732 6.299L16.6882 4.883L14.7063 4.6L13.7863 2.831L12.8663 4.601L10.8853 4.883L12.3702 6.3L12.0162 8.352L12.0173 8.351ZM4.51525 15.78L6.35525 14.86L8.12425 15.78L7.77025 13.8L9.25625 12.384L7.27525 12.101L6.35525 10.261L5.43525 12.101L3.45325 12.384L4.86925 13.799L4.51525 15.781V15.78ZM14.6353 14.79V31.137C14.6353 31.845 15.2013 32.411 15.9093 32.411H32.2563C32.9643 32.411 33.5303 31.845 33.5303 31.137V14.79C33.5303 14.083 32.9643 13.517 32.2563 13.517H15.9102C15.2022 13.517 14.6362 14.083 14.6362 14.791L14.6353 14.79ZM16.2622 24.556L18.8102 22.008L21.2873 24.485L28.1523 17.195L30.6992 19.743L21.2873 29.58L16.2633 24.556H16.2622Z" fill="#798E91"/>
</g>
<defs>
<clipPath id="clip0_324_56023">
<rect width="101" height="46" fill="white"/>
</clipPath>
</defs>
</svg>
